<svg width="36" height="44" viewBox="0 0 36 44" fill="none" xmlns="http://www.w3.org/2000/svg">
<path d="M18.0092 33.7666C16.3116 33.7666 14.6141 33.7692 12.9166 33.7658C12.2438 33.7641 12.2549 33.7572 12.3037 34.4138C12.3319 34.7973 12.3439 35.1859 12.3148 35.5677C12.2506 36.4083 12.2729 37.2455 12.3122 38.087C12.3662 39.2392 12.2395 40.3906 12.3011 41.5479C12.3576 42.6257 11.7173 43.5228 10.839 43.8489C9.34436 44.4036 7.80949 43.3695 7.77782 41.7499C7.747 40.2099 7.76669 38.6691 7.76583 37.1282C7.76498 36.1729 7.75556 35.2167 7.77268 34.2614C7.77953 33.8933 7.65112 33.7478 7.27618 33.7632C6.77797 33.7846 6.27804 33.7735 5.77897 33.7589C5.15663 33.7409 4.85788 33.479 4.86986 32.8738C4.87928 32.4047 4.69009 32.3062 4.26379 32.2951C2.78113 32.2566 2.00984 31.3852 1.92681 29.9068C1.83949 28.3531 2.00556 26.8028 1.89856 25.2492C1.8412 24.4137 1.90969 23.5679 1.94735 22.7282C1.96533 22.3327 1.85576 22.0861 1.44743 21.9637C1.0117 21.8328 0.712947 21.5006 0.585398 21.0743C0.35598 20.3107 0.336291 19.5206 0.528044 18.7502C0.725788 17.9575 1.27023 17.562 2.09373 17.5569C3.47709 17.5475 4.8613 17.5569 6.24466 17.5603C6.85587 17.562 6.84559 17.5423 6.86271 16.9406C6.88668 16.1008 6.9817 15.2636 7.01166 14.423C7.07244 12.7007 7.23851 10.9843 7.28474 9.26028C7.31727 8.05071 7.36435 6.8343 7.52614 5.63672C7.90365 2.83751 9.89993 0.726546 12.5014 0.180401C13.7256 -0.0764076 15.0002 0.00491498 16.2543 0.0425802C16.8818 0.0614128 17.5075 0.068261 18.135 0.0442922C18.6469 0.0246036 19.1614 0.0203235 19.6742 0.0417241C20.3162 0.068261 20.9556 0.0656929 21.5977 0.0391561C24.1452 -0.0652793 26.2442 0.783899 27.6661 2.98646C28.214 3.83564 28.5513 4.77384 28.6103 5.79423C28.7576 8.34091 28.8851 10.8884 29.0495 13.4334C29.1239 14.5848 29.1727 15.7361 29.2215 16.8883C29.2523 17.6117 29.2652 17.6262 29.9817 17.6297C31.2794 17.6365 32.5781 17.6297 33.8758 17.6382C35.0717 17.6459 35.6332 18.2109 35.6384 19.3956C35.6401 19.7381 35.6324 20.0805 35.6461 20.4229C35.6778 21.2096 35.3054 21.7728 34.5444 21.9877C34.2696 22.0656 34.1917 22.1615 34.2191 22.4534C34.2756 23.0637 34.1737 23.6809 34.1968 24.2887C34.261 26.0119 34.1275 27.7359 34.2345 29.4582C34.2627 29.9154 34.2422 30.3759 34.0778 30.8091C33.7046 31.7926 32.9461 32.3062 31.8598 32.3011C31.4935 32.2994 31.2598 32.2883 31.294 32.8053C31.3394 33.4722 30.9935 33.7572 30.3181 33.7649C29.8473 33.77 29.3748 33.7872 28.9065 33.7538C28.4793 33.7238 28.3415 33.8608 28.345 34.3034C28.3664 36.6994 28.3569 39.0963 28.3544 41.4923C28.3535 42.1497 28.226 42.7678 27.7611 43.2737C27.0772 44.0184 26.2297 44.1057 25.3249 43.8327C24.3943 43.5519 23.9381 42.8491 23.8747 41.9169C23.8148 41.0232 23.7506 40.1278 23.8396 39.2264C23.9038 38.5758 23.8276 37.9166 23.8088 37.2618C23.7848 36.422 23.8371 35.5805 23.8533 34.7399C23.8559 34.5833 23.8413 34.4266 23.8362 34.27C23.8251 33.9044 23.6616 33.7529 23.2729 33.7564C21.5189 33.7735 19.764 33.7641 18.0092 33.7641C18.0092 33.7683 18.0092 33.7675 18.0092 33.7666ZM17.9749 1.64678C17.9749 1.64421 17.9749 1.64164 17.9749 1.63821C16.6053 1.63821 15.2365 1.63308 13.8668 1.64164C13.5407 1.64335 13.2068 1.65362 12.8892 1.72039C10.607 2.20234 9.00024 4.29019 9.01736 6.71018C9.02934 8.36488 8.85043 10.0119 8.78537 11.664C8.6835 14.2834 8.44467 16.8978 8.34537 19.5163C8.28459 21.1248 8.10311 22.7264 8.08941 24.3375C8.08599 24.7133 8.15276 24.8306 8.53627 24.8502C10.3879 24.9461 12.2403 24.8049 14.0919 24.8879C14.7451 24.917 15.4042 24.8203 16.0574 24.8528C17.7815 24.9393 19.5055 24.8734 21.2279 24.8699C22.8646 24.8665 24.5039 24.9538 26.1415 24.8494C26.6509 24.8169 27.1662 24.8725 27.679 24.8999C27.9529 24.9144 28.0813 24.8126 28.0556 24.5301C28.0256 24.2039 27.9991 23.8769 27.9786 23.5499C27.8245 21.1471 27.7406 18.7399 27.5805 16.3371C27.3768 13.2947 27.2766 10.2456 27.1063 7.20068C27.0575 6.3224 27.0729 5.41843 26.6877 4.5975C25.7923 2.69027 24.3027 1.66304 22.1686 1.64763C20.7707 1.63821 19.3728 1.64678 17.9749 1.64678ZM18.0554 32.1838C18.0554 32.1821 18.0554 32.1796 18.0554 32.1778C18.2977 32.1778 18.5399 32.1778 18.783 32.1778C22.2337 32.1778 25.6844 32.1727 29.1351 32.1847C29.5331 32.1864 29.6966 32.0777 29.6864 31.6548C29.6615 30.7003 29.6906 29.7442 29.6744 28.7888C29.6496 27.3319 28.7841 26.4835 27.3383 26.4801C25.9977 26.4767 24.658 26.4784 23.3174 26.4784C18.4269 26.4767 13.5364 26.4698 8.64498 26.475C7.32925 26.4758 6.44582 27.3687 6.43641 28.6793C6.42956 29.6774 6.44839 30.6755 6.42785 31.6736C6.41929 32.058 6.53143 32.1941 6.93376 32.1932C10.6404 32.1778 14.3479 32.1838 18.0554 32.1838ZM3.52503 26.1334C3.52503 27.3293 3.5216 28.5252 3.52674 29.7219C3.53016 30.4761 3.73989 30.6832 4.4855 30.7209C4.73375 30.7337 4.86387 30.6601 4.85531 30.3913C4.84247 29.9787 4.85702 29.5652 4.83391 29.1535C4.76029 27.8138 5.13352 26.6513 6.16504 25.7474C6.28746 25.6404 6.38761 25.5385 6.39703 25.3622C6.4501 24.3674 6.50746 23.3736 6.56909 22.3798C6.58365 22.1384 6.4852 22.0279 6.24722 22.0553C5.49391 22.1426 4.7406 22.1075 3.98814 22.0476C3.64059 22.0194 3.51219 22.1418 3.51818 22.503C3.53616 23.7126 3.52503 24.923 3.52503 26.1334ZM32.5986 26.2576C32.5995 26.2576 32.6003 26.2576 32.6012 26.2576C32.6012 25.0309 32.602 23.8033 32.6003 22.5766C32.6003 22.3618 32.6226 22.1306 32.3067 22.1067C31.5525 22.0493 30.7984 22.0313 30.0416 22.0647C29.6675 22.0819 29.51 22.2291 29.546 22.6229C29.6213 23.4455 29.6769 24.2707 29.7129 25.0959C29.7266 25.4058 29.8225 25.6369 30.0587 25.8372C30.8874 26.5392 31.205 27.4791 31.2615 28.5277C31.2931 29.1107 31.3137 29.6954 31.324 30.2792C31.3291 30.5634 31.4558 30.6901 31.7314 30.7183C32.2733 30.7748 32.59 30.5274 32.5952 29.9813C32.6063 28.74 32.5986 27.4988 32.5986 26.2576ZM25.4344 37.8798C25.4361 37.8798 25.4387 37.8798 25.4404 37.8798C25.4404 39.1202 25.4353 40.3606 25.443 41.601C25.4464 42.1095 25.6827 42.3706 26.1004 42.3714C26.5199 42.3723 26.7673 42.1035 26.763 41.6078C26.7579 40.9958 26.68 40.3811 26.7176 39.7725C26.8238 38.0647 26.6663 36.3561 26.7579 34.6483C26.8041 33.7889 26.6979 33.7435 25.8368 33.7589C25.5072 33.7649 25.4276 33.9036 25.4301 34.2015C25.4404 35.4273 25.4344 36.6531 25.4344 37.8798ZM10.6841 37.9346C10.6823 37.9346 10.6806 37.9346 10.6789 37.9346C10.6789 36.6814 10.6798 35.4282 10.6781 34.175C10.6781 33.9798 10.655 33.7683 10.3999 33.7837C10.0592 33.8051 9.69191 33.6339 9.38289 33.8993C9.35036 33.9267 9.35036 34.0089 9.3572 34.0628C9.51472 35.2005 9.2716 36.339 9.35977 37.4741C9.40514 38.0579 9.44794 38.6426 9.39059 39.2221C9.30327 40.0927 9.36748 40.9573 9.42312 41.8227C9.45051 42.243 9.70561 42.4313 10.1199 42.3757C10.5385 42.3192 10.6849 42.0418 10.6841 41.6523C10.6832 40.4128 10.6841 39.1741 10.6841 37.9346ZM31.7477 20.4811C31.7477 20.4819 31.7477 20.4819 31.7477 20.4828C31.8615 20.4828 31.9754 20.4828 32.0893 20.4828C32.4882 20.4828 32.8871 20.4854 33.286 20.4819C34.0624 20.4742 34.047 20.4725 34.059 19.7055C34.0641 19.3546 33.97 19.1637 33.5899 19.1714C33.3485 19.1765 33.1071 19.1457 32.8657 19.138C31.9831 19.1072 31.1022 19.2501 30.2197 19.1791C29.3225 19.1063 29.3011 19.1226 29.3979 20.024C29.3996 20.0385 29.4013 20.0522 29.4022 20.0668C29.4184 20.3612 29.5631 20.4922 29.8687 20.4862C30.4936 20.4717 31.1211 20.4811 31.7477 20.4811ZM4.33484 20.4802C4.33484 20.4811 4.33484 20.4819 4.33484 20.4819C4.649 20.4819 4.96231 20.4837 5.27648 20.4819C5.60434 20.4802 5.93306 20.4665 6.26092 20.4742C6.55026 20.4811 6.66069 20.3535 6.67695 20.0668C6.72832 19.1671 6.73516 19.1662 5.81493 19.138C5.71477 19.1346 5.61547 19.1346 5.51531 19.1363C4.66013 19.1525 3.80153 19.2244 2.95063 19.1722C1.96105 19.1114 2.06805 19.0412 2.05521 20.0633C2.05093 20.3835 2.19047 20.4896 2.49436 20.4837C3.10814 20.4717 3.72192 20.4802 4.33484 20.4802Z" fill="black"/>
<path d="M14.141 2.92923C15.806 3.07047 17.4727 2.91125 19.1403 2.96261C20.1761 2.99428 21.2179 2.95405 22.258 2.97888C24.1224 3.02339 25.4167 4.14307 25.6778 5.9784C25.7532 6.50742 25.5058 6.92259 25.0692 6.99792C24.6172 7.07582 24.2422 6.79847 24.1138 6.28999C23.7757 4.95373 23.2869 4.56681 21.925 4.56424C19.3432 4.55996 16.7622 4.55739 14.1804 4.55568C12.8296 4.55482 12.2637 5.01023 11.9752 6.32081C11.8545 6.86952 11.5618 7.09637 11.0867 7.00991C10.5354 6.9089 10.3317 6.61785 10.4036 6.03147C10.6287 4.18416 12.149 2.92238 14.141 2.92923Z" fill="black"/>
</svg>
